<svg width="17" height="16" viewBox="0 0 17 16" fill="none" xmlns="http://www.w3.org/2000/svg">
<path d="M10.9654 5.33325C12.0263 5.33325 13.0437 5.75468 13.7938 6.50482C14.544 7.25497 14.9654 8.27239 14.9654 9.33325V13.9999H12.2987V9.33325C12.2987 8.97963 12.1583 8.64049 11.9082 8.39044C11.6582 8.14039 11.319 7.99992 10.9654 7.99992C10.6118 7.99992 10.2726 8.14039 10.0226 8.39044C9.77254 8.64049 9.63206 8.97963 9.63206 9.33325V13.9999H6.96539V9.33325C6.96539 8.27239 7.38682 7.25497 8.13697 6.50482C8.88711 5.75468 9.90453 5.33325 10.9654 5.33325Z" fill="#009A74" stroke="#009A74" stroke-linecap="round" stroke-linejoin="round"/>
<path d="M4.29875 6H1.63208V14H4.29875V6Z" fill="#009A74" stroke="#009A74" stroke-linecap="round" stroke-linejoin="round"/>
<path d="M2.96541 3.99992C3.70179 3.99992 4.29875 3.40296 4.29875 2.66659C4.29875 1.93021 3.70179 1.33325 2.96541 1.33325C2.22903 1.33325 1.63208 1.93021 1.63208 2.66659C1.63208 3.40296 2.22903 3.99992 2.96541 3.99992Z" fill="#009A74" stroke="#009A74" stroke-linecap="round" stroke-linejoin="round"/>
</svg>
