<svg width="25" height="24" viewBox="0 0 25 24" fill="none" xmlns="http://www.w3.org/2000/svg">
<path opacity="0.15" d="M0.298737 4C0.298737 1.79086 2.0896 0 4.29874 0H20.2987C22.5079 0 24.2987 1.79086 24.2987 4V20C24.2987 22.2091 22.5079 24 20.2987 24H4.29874C2.0896 24 0.298737 22.2091 0.298737 20V4Z" fill="#009A74"/>
<path d="M14.9654 9.33325C16.0263 9.33325 17.0437 9.75468 17.7938 10.5048C18.544 11.255 18.9654 12.2724 18.9654 13.3333V17.9999H16.2987V13.3333C16.2987 12.9796 16.1583 12.6405 15.9082 12.3904C15.6582 12.1404 15.319 11.9999 14.9654 11.9999C14.6118 11.9999 14.2726 12.1404 14.0226 12.3904C13.7725 12.6405 13.6321 12.9796 13.6321 13.3333V17.9999H10.9654V13.3333C10.9654 12.2724 11.3868 11.255 12.137 10.5048C12.8871 9.75468 13.9045 9.33325 14.9654 9.33325Z" fill="#009A74" stroke="#009A74" stroke-linecap="round" stroke-linejoin="round"/>
<path d="M8.29875 10H5.63208V18H8.29875V10Z" fill="#009A74" stroke="#009A74" stroke-linecap="round" stroke-linejoin="round"/>
<path d="M6.96541 7.99992C7.70179 7.99992 8.29875 7.40296 8.29875 6.66659C8.29875 5.93021 7.70179 5.33325 6.96541 5.33325C6.22903 5.33325 5.63208 5.93021 5.63208 6.66659C5.63208 7.40296 6.22903 7.99992 6.96541 7.99992Z" fill="#009A74" stroke="#009A74" stroke-linecap="round" stroke-linejoin="round"/>
</svg>
