<svg width="25" height="24" viewBox="0 0 25 24" fill="none" xmlns="http://www.w3.org/2000/svg">
<path opacity="0.15" d="M0.298737 4C0.298737 1.79086 2.0896 0 4.29874 0H20.2987C22.5079 0 24.2987 1.79086 24.2987 4V20C24.2987 22.2091 22.5079 24 20.2987 24H4.29874C2.0896 24 0.298737 22.2091 0.298737 20V4Z" fill="#009A74"/>
<path d="M14.2987 18.6666V15.9999C14.3915 15.1648 14.152 14.3267 13.6321 13.6666C15.6321 13.6666 17.6321 12.3333 17.6321 9.99992C17.6854 9.16659 17.4521 8.34659 16.9654 7.66659C17.1521 6.89992 17.1521 6.09992 16.9654 5.33325C16.9654 5.33325 16.2987 5.33325 14.9654 6.33325C13.2054 5.99992 11.3921 5.99992 9.63207 6.33325C8.29874 5.33325 7.63207 5.33325 7.63207 5.33325C7.43207 6.09992 7.43207 6.89992 7.63207 7.66659C7.14666 8.34384 6.91106 9.16844 6.96541 9.99992C6.96541 12.3333 8.96541 13.6666 10.9654 13.6666C10.7054 13.9933 10.5121 14.3666 10.3987 14.7666C10.2854 15.1666 10.2521 15.5866 10.2987 15.9999V18.6666" stroke="#009A74" stroke-linecap="round" stroke-linejoin="round"/>
<path d="M10.2987 16.0001C7.29208 17.3334 6.96541 14.6667 5.63208 14.6667" stroke="#009A74" stroke-linecap="round" stroke-linejoin="round"/>
</svg>
